<svg width="800" height="520" viewBox="0 0 800 520" fill="none" xmlns="http://www.w3.org/2000/svg">
  <defs>
    <linearGradient id="bg" x1="60" y1="52" x2="748" y2="474" gradientUnits="userSpaceOnUse">
      <stop stop-color="#1A1338"/>
      <stop offset="1" stop-color="#0D224C"/>
    </linearGradient>
    <linearGradient id="card" x1="288" y1="152" x2="519" y2="375" gradientUnits="userSpaceOnUse">
      <stop stop-color="#8BE6FF"/>
      <stop offset="0.48" stop-color="#6B88FF"/>
      <stop offset="1" stop-color="#C56FFF"/>
    </linearGradient>
  </defs>
  <rect x="24" y="24" width="752" height="472" rx="32" fill="url(#bg)"/>
  <circle cx="168" cy="120" r="68" fill="#FF5EF2" fill-opacity="0.12"/>
  <circle cx="620" cy="100" r="54" fill="#6AA6FF" fill-opacity="0.16"/>
  <text x="94" y="100" fill="#B8CCFF" font-family="Arial, sans-serif" font-size="16" font-weight="700">INTERGAZE COLLECTORS</text>
  <text x="94" y="162" fill="white" font-family="Arial, sans-serif" font-size="50" font-weight="700">Genesis Mint Pass</text>
  <text x="94" y="202" fill="#D4E0FF" font-family="Arial, sans-serif" font-size="23">Collector entry pass for first-wave mints and gated drops</text>
  <ellipse cx="406" cy="394" rx="136" ry="26" fill="#07152C" fill-opacity="0.46"/>
  <rect x="300" y="148" width="212" height="236" rx="28" fill="url(#card)"/>
  <rect x="318" y="166" width="176" height="200" rx="22" stroke="white" stroke-opacity="0.32" stroke-width="4"/>
  <circle cx="406" cy="254" r="60" fill="#0F1F4F" fill-opacity="0.78"/>
  <path d="M406 208L422 242L460 246L431 271L439 309L406 291L373 309L381 271L352 246L390 242L406 208Z" fill="#FFF3A8"/>
  <path d="M337 184H475" stroke="#E6F7FF" stroke-opacity="0.7" stroke-width="8" stroke-linecap="round"/>
  <path d="M337 332H475" stroke="#E6F7FF" stroke-opacity="0.42" stroke-width="8" stroke-linecap="round"/>
  <rect x="94" y="394" width="134" height="62" rx="18" fill="#241A4A"/>
  <text x="161" y="418" text-anchor="middle" fill="#D8C9FF" font-family="Arial, sans-serif" font-size="14" font-weight="700">SUGGESTED</text>
  <text x="161" y="444" text-anchor="middle" fill="white" font-family="Arial, sans-serif" font-size="28" font-weight="700">$180</text>
</svg>
