<svg width="1480" height="900" viewBox="0 0 1480 900" fill="none" xmlns="http://www.w3.org/2000/svg">
  <rect width="1480" height="900" rx="36" fill="#F8FBFF"/>
  <rect x="36" y="36" width="1408" height="828" rx="28" fill="white" stroke="#D7E3F4" stroke-width="2"/>

  <text x="80" y="96" fill="#0F172A" font-family="Segoe UI, Arial, sans-serif" font-size="42" font-weight="700">LendPay Architecture</text>
  <text x="80" y="134" fill="#475569" font-family="Segoe UI, Arial, sans-serif" font-size="22">One borrower app, one backend policy layer, one rollup runtime, one Move protocol layer.</text>

  <rect x="90" y="186" width="280" height="112" rx="24" fill="#ECFEFF" stroke="#5EEAD4" stroke-width="2"/>
  <text x="122" y="228" fill="#134E4A" font-family="Segoe UI, Arial, sans-serif" font-size="30" font-weight="700">Borrower + Wallet</text>
  <text x="122" y="262" fill="#0F766E" font-family="Segoe UI, Arial, sans-serif" font-size="20">connect, sign, approve, repay</text>

  <rect x="90" y="360" width="520" height="192" rx="28" fill="#EEF4FF" stroke="#93C5FD" stroke-width="2"/>
  <text x="126" y="412" fill="#1D4ED8" font-family="Segoe UI, Arial, sans-serif" font-size="36" font-weight="700">Frontend</text>
  <text x="126" y="448" fill="#334155" font-family="Segoe UI, Arial, sans-serif" font-size="22">React + Vite borrower console</text>
  <text x="126" y="490" fill="#334155" font-family="Segoe UI, Arial, sans-serif" font-size="20">• InterwovenKit wallet flow</text>
  <text x="126" y="524" fill="#334155" font-family="Segoe UI, Arial, sans-serif" font-size="20">• signed backend session</text>

  <rect x="676" y="360" width="714" height="192" rx="28" fill="#F6F3FF" stroke="#C4B5FD" stroke-width="2"/>
  <text x="712" y="412" fill="#6D28D9" font-family="Segoe UI, Arial, sans-serif" font-size="36" font-weight="700">Backend</text>
  <text x="712" y="448" fill="#334155" font-family="Segoe UI, Arial, sans-serif" font-size="22">Fastify + Prisma + policy integrations</text>
  <text x="712" y="490" fill="#334155" font-family="Segoe UI, Arial, sans-serif" font-size="20">• auth, borrower sync, underwriting</text>
  <text x="712" y="524" fill="#334155" font-family="Segoe UI, Arial, sans-serif" font-size="20">• operator actions and mirrored state</text>

  <rect x="90" y="620" width="1300" height="180" rx="28" fill="#EFFCF6" stroke="#86EFAC" stroke-width="2"/>
  <text x="126" y="674" fill="#166534" font-family="Segoe UI, Arial, sans-serif" font-size="36" font-weight="700">Rollup</text>
  <text x="126" y="710" fill="#334155" font-family="Segoe UI, Arial, sans-serif" font-size="22">MiniMove runtime with RPC, REST, blocks, state, execution, and oracle-side chain data</text>

  <rect x="420" y="712" width="640" height="64" rx="22" fill="#F0FDF4" stroke="#4ADE80" stroke-width="2"/>
  <text x="452" y="753" fill="#166534" font-family="Segoe UI, Arial, sans-serif" font-size="28" font-weight="700">Move Contract: loan book, treasury, rewards, staking, governance</text>

  <rect x="1144" y="170" width="218" height="72" rx="18" fill="#FFF7ED" stroke="#FDBA74" stroke-width="2"/>
  <text x="1170" y="200" fill="#9A3412" font-family="Segoe UI, Arial, sans-serif" font-size="24" font-weight="700">Postgres</text>
  <text x="1170" y="226" fill="#7C2D12" font-family="Segoe UI, Arial, sans-serif" font-size="16">backend mirror data</text>

  <rect x="1144" y="258" width="218" height="72" rx="18" fill="#FEFCE8" stroke="#FACC15" stroke-width="2"/>
  <text x="1170" y="288" fill="#854D0E" font-family="Segoe UI, Arial, sans-serif" font-size="24" font-weight="700">Connect</text>
  <text x="1170" y="314" fill="#854D0E" font-family="Segoe UI, Arial, sans-serif" font-size="16">price reference</text>

  <rect x="1144" y="640" width="218" height="72" rx="18" fill="#EFF6FF" stroke="#93C5FD" stroke-width="2"/>
  <text x="1170" y="670" fill="#1D4ED8" font-family="Segoe UI, Arial, sans-serif" font-size="24" font-weight="700">Initia L1</text>
  <text x="1170" y="696" fill="#1E3A8A" font-family="Segoe UI, Arial, sans-serif" font-size="16">identity and usernames</text>

  <path d="M230 298V344" stroke="#0EA5E9" stroke-width="5" stroke-linecap="round"/>
  <path d="M220 332L230 348L240 332" stroke="#0EA5E9" stroke-width="5" stroke-linecap="round" stroke-linejoin="round"/>

  <path d="M610 452H676" stroke="#7C3AED" stroke-width="5" stroke-linecap="round"/>
  <path d="M664 442L680 452L664 462" stroke="#7C3AED" stroke-width="5" stroke-linecap="round" stroke-linejoin="round"/>
  <text x="510" y="438" fill="#6D28D9" font-family="Segoe UI, Arial, sans-serif" font-size="18" font-weight="600">session + borrower APIs</text>

  <path d="M348 552C388 600 450 620 560 620" stroke="#2563EB" stroke-width="5" stroke-linecap="round"/>
  <path d="M546 610L564 620L548 632" stroke="#2563EB" stroke-width="5" stroke-linecap="round" stroke-linejoin="round"/>
  <text x="146" y="598" fill="#1D4ED8" font-family="Segoe UI, Arial, sans-serif" font-size="18" font-weight="600">signed Move tx</text>

  <path d="M930 552C906 594 878 616 824 620" stroke="#16A34A" stroke-width="5" stroke-linecap="round"/>
  <path d="M836 610L820 620L838 630" stroke="#16A34A" stroke-width="5" stroke-linecap="round" stroke-linejoin="round"/>
  <text x="842" y="596" fill="#166534" font-family="Segoe UI, Arial, sans-serif" font-size="18" font-weight="600">sync + operator writes</text>

  <path d="M1090 206H1144" stroke="#F97316" stroke-width="3.5" stroke-dasharray="10 8" stroke-linecap="round"/>
  <path d="M1090 294H1144" stroke="#EAB308" stroke-width="3.5" stroke-dasharray="10 8" stroke-linecap="round"/>
  <path d="M1090 676H1144" stroke="#3B82F6" stroke-width="3.5" stroke-dasharray="10 8" stroke-linecap="round"/>

  <text x="80" y="840" fill="#64748B" font-family="Segoe UI, Arial, sans-serif" font-size="18">Frontend handles user UX. Backend normalizes, authenticates, and applies policy. Rollup executes. Move defines protocol logic.</text>
</svg>
