<svg width="800" height="520" viewBox="0 0 800 520" fill="none" xmlns="http://www.w3.org/2000/svg">
  <defs>
    <linearGradient id="bg" x1="74" y1="42" x2="744" y2="484" gradientUnits="userSpaceOnUse">
      <stop stop-color="#2A132B"/>
      <stop offset="1" stop-color="#141F4B"/>
    </linearGradient>
    <linearGradient id="blade" x1="356" y1="160" x2="470" y2="354" gradientUnits="userSpaceOnUse">
      <stop stop-color="#FFF5C1"/>
      <stop offset="1" stop-color="#FFB648"/>
    </linearGradient>
    <linearGradient id="shield" x1="264" y1="214" x2="362" y2="362" gradientUnits="userSpaceOnUse">
      <stop stop-color="#8AE1FF"/>
      <stop offset="1" stop-color="#3E78FF"/>
    </linearGradient>
  </defs>
  <rect x="24" y="24" width="752" height="472" rx="32" fill="url(#bg)"/>
  <circle cx="148" cy="128" r="74" fill="#FF5A5F" fill-opacity="0.12"/>
  <circle cx="628" cy="108" r="52" fill="#7B7FFF" fill-opacity="0.14"/>
  <text x="94" y="102" fill="#FFD8A9" font-family="Arial, sans-serif" font-size="16" font-weight="700">YOMINET ARENA</text>
  <text x="94" y="164" fill="white" font-family="Arial, sans-serif" font-size="48" font-weight="700">Arena Starter Pack</text>
  <text x="94" y="204" fill="#E5D6FF" font-family="Arial, sans-serif" font-size="23">A first-run loadout for ranked battles and quick boosters</text>
  <ellipse cx="418" cy="398" rx="152" ry="26" fill="#080D23" fill-opacity="0.52"/>
  <path d="M421 146L468 221L428 364L389 221L421 146Z" fill="url(#blade)"/>
  <path d="M421 146L437 170L414 351L398 221L421 146Z" fill="#FFF9E0" fill-opacity="0.72"/>
  <rect x="410" y="216" width="24" height="120" rx="12" fill="#6037FF"/>
  <rect x="378" y="300" width="86" height="20" rx="10" fill="#7D5BFF"/>
  <path d="M318 206L358 227V291C358 330 337 361 318 377C299 361 278 330 278 291V227L318 206Z" fill="url(#shield)"/>
  <path d="M318 232C336 241 344 257 344 279C344 307 330 333 318 347C306 333 292 307 292 279C292 257 300 241 318 232Z" fill="#DAF7FF"/>
  <circle cx="523" cy="284" r="44" fill="#FF5A5F"/>
  <path d="M523 250L531 273L555 274L536 289L543 312L523 298L503 312L510 289L491 274L515 273L523 250Z" fill="#FFF1B2"/>
  <rect x="94" y="392" width="134" height="62" rx="18" fill="#2C1941"/>
  <text x="161" y="416" text-anchor="middle" fill="#F0CFA4" font-family="Arial, sans-serif" font-size="14" font-weight="700">SUGGESTED</text>
  <text x="161" y="442" text-anchor="middle" fill="white" font-family="Arial, sans-serif" font-size="28" font-weight="700">$340</text>
</svg>
